<?xml version="1.0" encoding="utf-8"?>
<!-- Generator: Adobe Illustrator 21.0.0, SVG Export Plug-In . SVG Version: 6.00 Build 0)  -->
<svg version="1.1" id="Layer_1" xmlns="http://www.w3.org/2000/svg" xmlns:xlink="http://www.w3.org/1999/xlink" x="0px" y="0px"
	 viewBox="0 0 150 50" style="enable-background:new 0 0 150 50;" xml:space="preserve">
<style type="text/css">
	.st0{fill:#89152E;}
	.st1{fill:none;}
	.st2{fill:#D32036;}
	.st3{fill:#352A2E;}
	.st4{fill:#77676D;}
</style>
<g>
	<polygon class="st0" points="15.5,28.9 18.1,33 31.3,15.9 13.9,26.3 13.9,26.3 	"/>
	<polygon class="st1" points="19.8,29.2 18.1,26.6 18.1,26.6 18.1,26.7 	"/>
	<path class="st2" d="M9.7,31.6L9.7,31.6C9.7,31.6,9.7,31.6,9.7,31.6L9.7,31.6z"/>
	<polygon class="st2" points="22.4,33.3 22.4,33.4 19.8,29.2 18.1,26.7 9.8,31.6 26.1,39.1 	"/>
	<polygon class="st2" points="19.8,29.2 22.4,33.3 35.5,16.3 18.1,26.6 18.1,26.6 	"/>
	<path class="st2" d="M9.7,31.6L9.7,31.6L9.7,31.6C9.7,31.6,9.7,31.6,9.7,31.6z"/>
	<polygon class="st2" points="22.4,33.4 22.4,33.3 19.8,29.2 	"/>
	<path class="st2" d="M18.1,26.6l-8.3,5c0,0,0,0,0,0l0,0L18.1,26.6L18.1,26.6z"/>
	<path class="st0" d="M5.9,20.8l3.8-0.2c0-1.7,0-2.9,0-2.9L5.9,20.8z"/>
	<path class="st2" d="M13.8,18.9l-4.1-1.2c0,0,0,1.2,0,2.9c0,3.9,0.1,10.4,0.1,11l8.3-5l0,0.1l0,0L13.8,18.9z"/>
</g>
<g>
	<path class="st3" d="M48.1,28.9L46,24.6l-2.2,4.2h-1.7l3.1-6h-2.6v-1.3h6.9v1.3h-2.6l3.1,6H48.1z M43.5,34.9v-5h1.7v3.7h7.7v1.3
		H43.5z M50.8,31.9v-6.3h-2v-1.3h2v-2.8h1.7v10.3H50.8z"/>
	<path class="st3" d="M61.1,29.5v5.4h-1.7v-5.4h-4.5v-1.3h10.7v1.3H61.1z M63.1,27.2l-2.9-3.1l-2.9,3.1h-2.1l4.1-4.4h-3.7v-1.3h9.2
		v1.3h-3.7l4.1,4.4H63.1z"/>
	<path class="st3" d="M67.2,23.5v-1.3h2.9v-0.9h1.7v0.9h2.9v1.3h-3c0.8,0.2,1.4,0.5,1.9,1.1c0.5,0.6,0.8,1.2,0.8,1.9
		c0,0.8-0.3,1.6-1,2.2c-0.7,0.6-1.5,0.9-2.4,0.9c-0.9,0-1.7-0.3-2.4-0.9c-0.7-0.6-1-1.3-1-2.2c0-0.7,0.3-1.4,0.8-1.9
		c0.5-0.5,1.1-0.9,1.9-1.1H67.2z M68.3,34.9v-4.7H70v3.4h7.3v1.3H68.3z M72.2,25.3c-0.3-0.3-0.7-0.5-1.2-0.5s-0.9,0.2-1.2,0.5
		c-0.3,0.3-0.5,0.7-0.5,1.2c0,0.5,0.2,0.9,0.5,1.2c0.3,0.3,0.7,0.5,1.2,0.5s0.9-0.2,1.2-0.5s0.5-0.7,0.5-1.2
		C72.7,26.1,72.5,25.6,72.2,25.3z M77,26.5v5.4h-1.7V21.5H77v3.6h1.3v1.3H77z"/>
	<path class="st3" d="M85.5,29.8l-2.2-4.9L81,29.8h-1.7l3.1-7h-2.6v-1.3h7v1.3h-2.7l3.1,7H85.5z M88.1,34.9V21.5h1.7v13.4H88.1z"/>
	<path class="st3" d="M98.6,29.6V32h-1.7v-2.4h-4.7v-1.3h10.6v1.3H98.6z M93.2,26.9v-5.4h8.7v5.4H93.2z M93.2,34.9V31h1.7v2.6h7.3
		v1.3H93.2z M100.2,22.9h-5.3v2.8h5.3V22.9z"/>
	<path class="st3" d="M109.1,30.2h3.1v1.3h-7.9v-1.3h3.2v-0.8c-0.7-0.2-1.2-0.5-1.7-1.1s-0.7-1.1-0.7-1.8c0-0.8,0.3-1.5,0.9-2.1
		c0.6-0.6,1.4-0.9,2.2-0.9c0.9,0,1.7,0.3,2.3,0.9c0.6,0.6,0.9,1.3,0.9,2.1c0,0.7-0.2,1.3-0.7,1.8c-0.5,0.5-1,0.9-1.7,1V30.2z
		 M104.6,23.5v-1.3h2.9v-1h1.7v1h2.9v1.3H104.6z M109.4,25.4c-0.3-0.3-0.7-0.5-1.1-0.5c-0.4,0-0.8,0.2-1.1,0.5
		c-0.3,0.3-0.5,0.7-0.5,1.1s0.2,0.8,0.5,1.1c0.3,0.3,0.7,0.5,1.1,0.5c0.4,0,0.8-0.2,1.1-0.5s0.4-0.7,0.4-1.1S109.7,25.7,109.4,25.4z
		 M114.3,27.5v7.4h-1.7V21.5h1.7v4.7h1.3v1.3H114.3z"/>
	<path class="st3" d="M123.3,28.9v1.2h3.5v4.8h-1.7v-3.4h-7.3v-1.3h3.8v-1.2h-4.5v-1.3h10.7v1.3H123.3z M125.3,26.7l-2.8-2.4
		l-2.8,2.4h-2.2l4.1-3.4h-3.7v-1.3h3.9v-0.7h1.7v0.7h3.9v1.3h-3.7l4,3.4H125.3z"/>
	<path class="st3" d="M133.9,29.8l-1.6-4.7l-1.7,4.7h-1.7l2.4-7h-1.9v-1.3h5.7v1.3h-1.9l2.4,7H133.9z M135.9,34.9v-8.7h-1.6v-1.3
		h1.6v-3.3h1.7v13.4H135.9z M138.3,34.9V21.5h1.7v13.4H138.3z"/>
</g>
<g>
	<path class="st4" d="M41.8,13v-0.6H43V12h0.7v0.4H45V13h-1.3c0.3,0.1,0.6,0.2,0.8,0.5c0.2,0.2,0.3,0.5,0.3,0.8
		c0,0.4-0.1,0.7-0.4,0.9c-0.3,0.3-0.6,0.4-1,0.4s-0.7-0.1-1-0.4c-0.3-0.3-0.4-0.6-0.4-0.9c0-0.3,0.1-0.6,0.3-0.8
		c0.2-0.2,0.5-0.4,0.8-0.5H41.8z M42.3,17.8v-2H43v1.4h3.1v0.6H42.3z M43.9,13.7c-0.1-0.1-0.3-0.2-0.5-0.2s-0.4,0.1-0.5,0.2
		c-0.1,0.1-0.2,0.3-0.2,0.5s0.1,0.4,0.2,0.5s0.3,0.2,0.5,0.2s0.4-0.1,0.5-0.2c0.1-0.1,0.2-0.3,0.2-0.5S44.1,13.9,43.9,13.7z
		 M46,14.3v2.3h-0.7v-4.4H46v1.5h0.6v0.6H46z"/>
	<path class="st4" d="M49.6,15.7l-0.9-2.1l-1,2.1h-0.7l1.3-3h-1.1v-0.6h3v0.6H49l1.3,3H49.6z M50.7,17.8v-5.7h0.7v5.7H50.7z"/>
	<path class="st4" d="M52.4,17.1v-0.6h1.9v-0.9h-1.5v-2h3v-0.9h-3v-0.6h3.7v2h-3V15h3.1v0.6h-1.7v0.9H57v0.6H52.4z"/>
	<path class="st4" d="M61.3,15v-0.6h2.2v-1.1h0.7v1.1h1.6V15H61.3z M62.2,14v-1.3h-0.7v-0.6h1.4V14H62.2z M64.7,17.8l-1.1-1l-1.1,1
		h-0.9l1.6-1.6h-1.5v-0.6h1.6v-0.4H64v0.4h1.6v0.6H64l1.6,1.6H64.7z M64.9,14v-1.3h-1.4v-0.6h2.1V14H64.9z"/>
	<path class="st4" d="M66.6,15.7v-0.6H67v-2.4h-0.5v-0.6h3.1v0.6h-0.4v2.4h0.4v0.6H66.6z M68.6,12.7h-0.8v2.4h0.8V12.7z M70.1,17.8
		v-5.7h0.7v5.7H70.1z"/>
	<path class="st4" d="M71.9,15.6V15h4.5v0.6H71.9z M72.3,14.3v-2.1H73v1.6h3.2v0.6H72.3z M72.3,17.8v-2H73v1.4h3.1v0.6H72.3z"/>
	<path class="st4" d="M83.1,15.3l-0.9-1.8l-0.9,1.8h-0.7l1.3-2.5h-1.1v-0.6h2.9v0.6h-1.1l1.3,2.6H83.1z M81.2,17.8v-2.1h0.7v1.6h3.3
		v0.6H81.2z M84.3,16.5v-2.7h-0.9v-0.6h0.9v-1.2H85v4.4H84.3z"/>
	<path class="st4" d="M88.6,15.5v2.3h-0.7v-2.3H86V15h4.5v0.6H88.6z M89.5,14.6l-1.2-1.3L87,14.6h-0.9l1.7-1.9h-1.6v-0.6h3.9v0.6
		h-1.6l1.7,1.9H89.5z"/>
</g>
</svg>
