<?xml version="1.0" encoding="utf-8"?>
<!-- Generator: Adobe Illustrator 21.0.0, SVG Export Plug-In . SVG Version: 6.00 Build 0)  -->
<svg version="1.1" id="Layer_1" xmlns="http://www.w3.org/2000/svg" xmlns:xlink="http://www.w3.org/1999/xlink" x="0px" y="0px"
	 viewBox="0 0 150 50" style="enable-background:new 0 0 150 50;" xml:space="preserve">
<style type="text/css">
	.st0{fill:#89152E;}
	.st1{fill:none;}
	.st2{fill:#D32036;}
	.st3{fill:#F9F4F6;}
	.st4{fill:#D8D4D5;}
</style>
<g>
	<polygon class="st0" points="17.5,27.9 20.1,32 33.3,14.9 15.9,25.3 15.9,25.3 	"/>
	<polygon class="st1" points="21.8,28.2 20.1,25.6 20.1,25.6 20.1,25.7 	"/>
	<path class="st2" d="M11.7,30.6L11.7,30.6C11.7,30.6,11.7,30.6,11.7,30.6L11.7,30.6z"/>
	<polygon class="st2" points="24.4,32.3 24.4,32.4 21.8,28.2 20.1,25.7 11.8,30.6 28.1,38.1 	"/>
	<polygon class="st2" points="21.8,28.2 24.4,32.3 37.5,15.3 20.1,25.6 20.1,25.6 	"/>
	<path class="st2" d="M11.7,30.6L11.7,30.6L11.7,30.6C11.7,30.6,11.7,30.6,11.7,30.6z"/>
	<polygon class="st2" points="24.4,32.4 24.4,32.3 21.8,28.2 	"/>
	<path class="st2" d="M20.1,25.6l-8.3,5c0,0,0,0,0,0l0,0L20.1,25.6L20.1,25.6z"/>
	<path class="st0" d="M7.9,19.8l3.8-0.2c0-1.7,0-2.9,0-2.9L7.9,19.8z"/>
	<path class="st2" d="M15.8,17.9l-4.1-1.2c0,0,0,1.2,0,2.9c0,3.9,0.1,10.4,0.1,11l8.3-5l0,0.1l0,0L15.8,17.9z"/>
</g>
<g>
	<path class="st3" d="M50.1,27.9L48,23.6l-2.2,4.2h-1.7l3.1-6h-2.6v-1.3h6.9v1.3h-2.6l3.1,6H50.1z M45.5,33.9v-5h1.7v3.7h7.7v1.3
		H45.5z M52.8,30.9v-6.3h-2v-1.3h2v-2.8h1.7v10.3H52.8z"/>
	<path class="st3" d="M63.1,28.5v5.4h-1.7v-5.4h-4.5v-1.3h10.7v1.3H63.1z M65.1,26.2l-2.9-3.1l-2.9,3.1h-2.1l4.1-4.4h-3.7v-1.3h9.2
		v1.3h-3.7l4.1,4.4H65.1z"/>
	<path class="st3" d="M69.2,22.5v-1.3h2.9v-0.9h1.7v0.9h2.9v1.3h-3c0.8,0.2,1.4,0.5,1.9,1.1c0.5,0.6,0.8,1.2,0.8,1.9
		c0,0.8-0.3,1.6-1,2.2c-0.7,0.6-1.5,0.9-2.4,0.9c-0.9,0-1.7-0.3-2.4-0.9c-0.7-0.6-1-1.3-1-2.2c0-0.7,0.3-1.4,0.8-1.9
		c0.5-0.5,1.1-0.9,1.9-1.1H69.2z M70.3,33.9v-4.7H72v3.4h7.3v1.3H70.3z M74.2,24.3c-0.3-0.3-0.7-0.5-1.2-0.5s-0.9,0.2-1.2,0.5
		c-0.3,0.3-0.5,0.7-0.5,1.2c0,0.5,0.2,0.9,0.5,1.2c0.3,0.3,0.7,0.5,1.2,0.5s0.9-0.2,1.2-0.5s0.5-0.7,0.5-1.2
		C74.7,25.1,74.5,24.6,74.2,24.3z M79,25.5v5.4h-1.7V20.5H79v3.6h1.3v1.3H79z"/>
	<path class="st3" d="M87.5,28.8l-2.2-4.9L83,28.8h-1.7l3.1-7h-2.6v-1.3h7v1.3h-2.7l3.1,7H87.5z M90.1,33.9V20.5h1.7v13.4H90.1z"/>
	<path class="st3" d="M100.6,28.6V31h-1.7v-2.4h-4.7v-1.3h10.6v1.3H100.6z M95.2,25.9v-5.4h8.7v5.4H95.2z M95.2,33.9V30h1.7v2.6h7.3
		v1.3H95.2z M102.2,21.9h-5.3v2.8h5.3V21.9z"/>
	<path class="st3" d="M111.1,29.2h3.1v1.3h-7.9v-1.3h3.2v-0.8c-0.7-0.2-1.2-0.5-1.7-1.1s-0.7-1.1-0.7-1.8c0-0.8,0.3-1.5,0.9-2.1
		c0.6-0.6,1.4-0.9,2.2-0.9c0.9,0,1.7,0.3,2.3,0.9c0.6,0.6,0.9,1.3,0.9,2.1c0,0.7-0.2,1.3-0.7,1.8c-0.5,0.5-1,0.9-1.7,1V29.2z
		 M106.6,22.5v-1.3h2.9v-1h1.7v1h2.9v1.3H106.6z M111.4,24.4c-0.3-0.3-0.7-0.5-1.1-0.5c-0.4,0-0.8,0.2-1.1,0.5
		c-0.3,0.3-0.5,0.7-0.5,1.1s0.2,0.8,0.5,1.1c0.3,0.3,0.7,0.5,1.1,0.5c0.4,0,0.8-0.2,1.1-0.5s0.4-0.7,0.4-1.1S111.7,24.7,111.4,24.4z
		 M116.3,26.5v7.4h-1.7V20.5h1.7v4.7h1.3v1.3H116.3z"/>
	<path class="st3" d="M125.3,27.9v1.2h3.5v4.8h-1.7v-3.4h-7.3v-1.3h3.8v-1.2h-4.5v-1.3h10.7v1.3H125.3z M127.3,25.7l-2.8-2.4
		l-2.8,2.4h-2.2l4.1-3.4h-3.7v-1.3h3.9v-0.7h1.7v0.7h3.9v1.3h-3.7l4,3.4H127.3z"/>
	<path class="st3" d="M135.9,28.8l-1.6-4.7l-1.7,4.7h-1.7l2.4-7h-1.9v-1.3h5.7v1.3h-1.9l2.4,7H135.9z M137.9,33.9v-8.7h-1.6v-1.3
		h1.6v-3.3h1.7v13.4H137.9z M140.3,33.9V20.5h1.7v13.4H140.3z"/>
</g>
<g>
	<path class="st4" d="M43.8,12v-0.6H45V11h0.7v0.4H47V12h-1.3c0.3,0.1,0.6,0.2,0.8,0.5c0.2,0.2,0.3,0.5,0.3,0.8
		c0,0.4-0.1,0.7-0.4,0.9c-0.3,0.3-0.6,0.4-1,0.4s-0.7-0.1-1-0.4c-0.3-0.3-0.4-0.6-0.4-0.9c0-0.3,0.1-0.6,0.3-0.8
		c0.2-0.2,0.5-0.4,0.8-0.5H43.8z M44.3,16.8v-2H45v1.4h3.1v0.6H44.3z M45.9,12.7c-0.1-0.1-0.3-0.2-0.5-0.2s-0.4,0.1-0.5,0.2
		c-0.1,0.1-0.2,0.3-0.2,0.5s0.1,0.4,0.2,0.5s0.3,0.2,0.5,0.2s0.4-0.1,0.5-0.2c0.1-0.1,0.2-0.3,0.2-0.5S46.1,12.9,45.9,12.7z
		 M48,13.3v2.3h-0.7v-4.4H48v1.5h0.6v0.6H48z"/>
	<path class="st4" d="M51.6,14.7l-0.9-2.1l-1,2.1h-0.7l1.3-3h-1.1v-0.6h3v0.6H51l1.3,3H51.6z M52.7,16.8v-5.7h0.7v5.7H52.7z"/>
	<path class="st4" d="M54.4,16.1v-0.6h1.9v-0.9h-1.5v-2h3v-0.9h-3v-0.6h3.7v2h-3V14h3.1v0.6h-1.7v0.9H59v0.6H54.4z"/>
	<path class="st4" d="M63.3,14v-0.6h2.2v-1.1h0.7v1.1h1.6V14H63.3z M64.2,13v-1.3h-0.7v-0.6h1.4V13H64.2z M66.7,16.8l-1.1-1l-1.1,1
		h-0.9l1.6-1.6h-1.5v-0.6h1.6v-0.4H66v0.4h1.6v0.6H66l1.6,1.6H66.7z M66.9,13v-1.3h-1.4v-0.6h2.1V13H66.9z"/>
	<path class="st4" d="M68.6,14.7v-0.6H69v-2.4h-0.5v-0.6h3.1v0.6h-0.4v2.4h0.4v0.6H68.6z M70.6,11.7h-0.8v2.4h0.8V11.7z M72.1,16.8
		v-5.7h0.7v5.7H72.1z"/>
	<path class="st4" d="M73.9,14.6V14h4.5v0.6H73.9z M74.3,13.3v-2.1H75v1.6h3.2v0.6H74.3z M74.3,16.8v-2H75v1.4h3.1v0.6H74.3z"/>
	<path class="st4" d="M85.1,14.3l-0.9-1.8l-0.9,1.8h-0.7l1.3-2.5h-1.1v-0.6h2.9v0.6h-1.1l1.3,2.6H85.1z M83.2,16.8v-2.1h0.7v1.6h3.3
		v0.6H83.2z M86.3,15.5v-2.7h-0.9v-0.6h0.9v-1.2H87v4.4H86.3z"/>
	<path class="st4" d="M90.6,14.5v2.3h-0.7v-2.3H88V14h4.5v0.6H90.6z M91.5,13.6l-1.2-1.3L89,13.6h-0.9l1.7-1.9h-1.6v-0.6h3.9v0.6
		h-1.6l1.7,1.9H91.5z"/>
</g>
</svg>
